<svg id="Capa_1" data-name="Capa 1" xmlns="http://www.w3.org/2000/svg" viewBox="0 0 638.06 638.06"><defs><style>.cls-1{fill:#fff;}</style></defs><g id="_5" data-name="5"><path class="cls-1" d="M323.52,340.22A13.12,13.12,0,0,0,334,336.48L452.36,217.91A13.39,13.39,0,0,0,433.44,199L323.52,309.07,213.59,199a13.39,13.39,0,1,0-18.91,18.95L313.06,336.48A13.12,13.12,0,0,0,323.52,340.22ZM334,497.28,479.11,351.9A13.39,13.39,0,1,0,460.2,333L323.52,469.86,186.84,333a13.39,13.39,0,1,0-18.92,18.95L313,497.26a16.64,16.64,0,0,0,20.95,0Z"/><path class="cls-1" d="M324.68,507l-1.17,0a18.91,18.91,0,0,1-14.72-5.5L163.67,356.14A19.41,19.41,0,0,1,177.38,323h0a19.21,19.21,0,0,1,13.69,5.69L323.52,461.37,456,328.71A19.17,19.17,0,0,1,469.64,323h0a19.23,19.23,0,0,1,13.71,5.69,19.46,19.46,0,0,1,0,27.43L338.23,501.52A19.09,19.09,0,0,1,324.68,507ZM323.53,495l.47,0a7.18,7.18,0,0,0,5.74-2L474.87,347.66A7.4,7.4,0,0,0,469.65,335h0a7.26,7.26,0,0,0-5.19,2.16L323.52,478.35,182.6,337.19a7.32,7.32,0,0,0-5.21-2.17h0a7.33,7.33,0,0,0-5.22,2.17,7.41,7.41,0,0,0,0,10.47L317.29,493a7.26,7.26,0,0,0,5.76,2Zm1.1-148.7c-.37,0-.75,0-1.12,0a19,19,0,0,1-14.71-5.52L190.44,222.15a19.44,19.44,0,0,1,0-27.43,19.21,19.21,0,0,1,13.7-5.69h0a19.21,19.21,0,0,1,13.7,5.69L323.52,300.57,429.19,194.72A19.27,19.27,0,0,1,442.9,189h0a19.25,19.25,0,0,1,13.69,5.69,19.46,19.46,0,0,1,0,27.43L338.23,340.72A19.11,19.11,0,0,1,324.63,346.26Zm-1.1-12.06.45,0a7.22,7.22,0,0,0,5.75-2L448.12,213.67a7.43,7.43,0,0,0,0-10.47,7.28,7.28,0,0,0-5.2-2.17h0a7.33,7.33,0,0,0-5.22,2.17L323.52,317.56,209.35,203.2a7.34,7.34,0,0,0-10.42,0,7.42,7.42,0,0,0,0,10.47L317.3,332.24a7.17,7.17,0,0,0,5.77,2Z"/></g></svg>
