<svg width="200" height="192" viewBox="0 0 200 192" fill="none" xmlns="http://www.w3.org/2000/svg">
<path opacity="0.5" d="M95.658 191.109C73.6625 191.11 52.3472 183.481 35.3439 169.522C18.3405 155.564 6.70133 136.139 2.40938 114.558C-1.88257 92.9774 1.43833 70.5754 11.8062 51.1692C22.1741 31.7631 38.9475 16.5536 59.2683 8.13235C79.5892 -0.288931 102.2 -1.40096 123.249 4.98572C144.297 11.3724 162.481 24.8627 174.702 43.1579C186.923 61.4531 192.424 83.4212 190.269 105.319C188.113 127.217 178.435 147.69 162.882 163.25C154.075 172.11 143.599 179.134 132.06 183.916C120.521 188.698 108.148 191.142 95.658 191.109ZM95.658 13.2011C84.7846 13.1833 74.0146 15.3139 63.9664 19.4707C53.9182 23.6275 44.7896 29.7286 37.1045 37.4239C4.81795 69.7228 4.81795 122.277 37.1045 154.576C69.3909 186.875 121.925 186.87 154.206 154.576C186.487 122.283 186.493 69.7228 154.206 37.4239C146.523 29.7278 137.395 23.6262 127.348 19.4693C117.3 15.3124 106.531 13.1822 95.658 13.2011Z" fill="#F4EFFD"/>
<path d="M158.547 174.261C155.512 174.265 152.544 173.368 150.019 171.684C147.494 170 145.525 167.604 144.362 164.8C143.199 161.995 142.893 158.909 143.484 155.931C144.075 152.953 145.536 150.218 147.682 148.071C161.484 134.262 169.237 115.533 169.237 96.0055C169.237 76.4776 161.484 57.7494 147.682 43.9403C144.866 41.0508 143.302 37.168 143.327 33.133C143.353 29.0979 144.967 25.2354 147.819 22.3821C150.671 19.5288 154.532 17.9145 158.566 17.8887C162.599 17.863 166.481 19.4279 169.369 22.2446C210.022 62.9185 210.022 129.092 169.369 169.766C167.949 171.19 166.262 172.32 164.405 173.091C162.548 173.862 160.557 174.26 158.547 174.261Z" fill="#6930DB"/>
</svg>
