<svg height='100px' width='100px'  fill="#6930db" xmlns="http://www.w3.org/2000/svg" xmlns:xlink="http://www.w3.org/1999/xlink" version="1.1" x="0px" y="0px" viewBox="0 0 100 100" style="enable-background:new 0 0 100 100;" xml:space="preserve"><path d="M63.28125,61.8671875V31.1933594c0-0.5527344-0.4472656-1-1-1s-1,0.4472656-1,1v28.6738281l-6.1875-6.1875V31.1933594  c0-0.5527344-0.4472656-1-1-1s-1,0.4472656-1,1v20.4863281l-6.1875-6.1875V31.1933594c0-0.5527344-0.4472656-1-1-1s-1,0.4472656-1,1  v12.2988281l-6.1875-6.1875v-6.1113281c0-0.5527344-0.4472656-1-1-1s-1,0.4472656-1,1v4.1113281l-4.8183594-4.8183594  c-0.390625-0.390625-1.0234375-0.390625-1.4140625,0s-0.390625,1.0234375,0,1.4140625l6.2324219,6.2324219v30.6738281  c0,0.5527344,0.4472656,1,1,1s1-0.4472656,1-1V40.1328125l6.1875,6.1875v22.4863281c0,0.5527344,0.4472656,1,1,1s1-0.4472656,1-1  V48.3203125l6.1875,6.1875v14.2988281c0,0.5527344,0.4472656,1,1,1s1-0.4472656,1-1V56.5078125l6.1875,6.1875v6.1113281  c0,0.5527344,0.4472656,1,1,1s1-0.4472656,1-1v-4.1113281l4.8183594,4.8183594  c0.1953125,0.1953125,0.4511719,0.2929688,0.7070312,0.2929688s0.5117188-0.0976562,0.7070312-0.2929688  c0.390625-0.390625,0.390625-1.0234375,0-1.4140625L63.28125,61.8671875z"></path><path d="M50,9.9736328C27.9443359,9.9736328,10,27.9296875,10,50s17.9443359,40.0263672,40,40.0263672S90,72.0703125,90,50  S72.0556641,9.9736328,50,9.9736328z M50,88.0263672c-20.953125,0-38-17.0585938-38-38.0263672s17.046875-38.0263672,38-38.0263672  S88,29.0322266,88,50S70.953125,88.0263672,50,88.0263672z"></path></svg>
