<svg height='100px' width='100px'  fill="#6930db" xmlns="http://www.w3.org/2000/svg" xmlns:xlink="http://www.w3.org/1999/xlink" version="1.1" x="0px" y="0px" viewBox="0 0 100 100" style="enable-background:new 0 0 100 100;" xml:space="preserve"><path d="M50,30.1933594c-0.5522461,0-1,0.4472656-1,1v37.6132812c0,0.5527344,0.4477539,1,1,1s1-0.4472656,1-1V31.1933594  C51,30.640625,50.5522461,30.1933594,50,30.1933594z"></path><path d="M50,9.9736328C27.9438477,9.9736328,10,27.9296875,10,50s17.9438477,40.0263672,40,40.0263672S90,72.0703125,90,50  S72.0561523,9.9736328,50,9.9736328z M50,88.0263672c-20.953125,0-38-17.0585938-38-38.0263672s17.046875-38.0263672,38-38.0263672  S88,29.0322266,88,50S70.953125,88.0263672,50,88.0263672z"></path></svg>
